<?xml version="1.0" encoding="iso-8859-1"?>
<svg fill="#9ac123" height="32px" width="32px" version="1.1" id="Layer_1" xmlns="http://www.w3.org/2000/svg" xmlns:xlink="http://www.w3.org/1999/xlink" 
	 viewBox="0 0 512.001 512.001" xml:space="preserve">
<g>
	<g>
		<path d="M503.578,408.064L313.866,218.353c9.902-26.733,12.558-55.505,7.656-83.897c-5.702-33.026-21.283-63.05-45.057-86.824
			c-63.143-63.144-165.887-63.144-229.031,0C16.846,78.22,0,118.89,0,162.148s16.846,83.927,47.435,114.515
			c25.115,25.117,56.941,40.977,92.033,45.869c28.01,3.906,56.901,0.298,83.022-10.169l18.352,40.593l53.227,24.066l24.065,53.226
			l53.233,24.069l25.959,57.411l114.675-1.118L503.578,408.064z M185.754,185.952c-11.585,11.584-26.801,17.376-42.017,17.376
			c-15.217,0-30.433-5.792-42.017-17.376c-23.168-23.169-23.168-60.866,0-84.035c23.17-23.168,60.866-23.168,84.035,0
			C208.922,125.086,208.922,162.785,185.754,185.952z"/>
	</g>
</g>
<g>
	<g>
		<path d="M162.169,125.502c-5.081-5.081-11.757-7.621-18.431-7.621c-6.676,0-13.35,2.539-18.434,7.621
			c-10.164,10.164-10.164,26.703,0,36.866c10.163,10.163,26.701,10.163,36.865,0C172.333,152.204,172.333,135.665,162.169,125.502z"
			/>
	</g>
</g>
</svg>